<mxfile host="app.diagrams.net" agent="Mozilla/5.0 (Macintosh; Intel Mac OS X 10_15_7) AppleWebKit/605.1.15 (KHTML, like Gecko) Version/17.1 Safari/605.1.15" version="24.7.7">
  <diagram name="Страница — 1" id="jvghSdwSpNbo85IBinJU">
    <mxGraphModel dx="3330" dy="1074" grid="1" gridSize="11" guides="1" tooltips="1" connect="1" arrows="1" fold="1" page="1" pageScale="1" pageWidth="827" pageHeight="1169" math="0" shadow="0">
      <root>
        <mxCell id="0" />
        <mxCell id="1" parent="0" />
        <mxCell id="bGfBSWejrqcEYvaSUzek-1" value="Пользователь" style="rounded=0;whiteSpace=wrap;html=1;" parent="1" vertex="1">
          <mxGeometry x="69" y="308" width="132" height="66" as="geometry" />
        </mxCell>
        <mxCell id="bGfBSWejrqcEYvaSUzek-2" value="Пароль" style="ellipse;whiteSpace=wrap;html=1;" parent="1" vertex="1">
          <mxGeometry x="-41" y="110" width="132" height="66" as="geometry" />
        </mxCell>
        <mxCell id="bGfBSWejrqcEYvaSUzek-3" value="Логин" style="ellipse;whiteSpace=wrap;html=1;" parent="1" vertex="1">
          <mxGeometry x="179" y="110" width="132" height="66" as="geometry" />
        </mxCell>
        <mxCell id="bGfBSWejrqcEYvaSUzek-4" value="Id" style="ellipse;whiteSpace=wrap;html=1;" parent="1" vertex="1">
          <mxGeometry x="-41" y="198" width="132" height="66" as="geometry" />
        </mxCell>
        <mxCell id="bGfBSWejrqcEYvaSUzek-5" value="Почта" style="ellipse;whiteSpace=wrap;html=1;" parent="1" vertex="1">
          <mxGeometry x="179" y="198" width="132" height="66" as="geometry" />
        </mxCell>
        <mxCell id="bGfBSWejrqcEYvaSUzek-6" value="" style="endArrow=none;html=1;rounded=0;exitX=0.5;exitY=0;exitDx=0;exitDy=0;entryX=0;entryY=0.5;entryDx=0;entryDy=0;" parent="1" source="bGfBSWejrqcEYvaSUzek-1" target="bGfBSWejrqcEYvaSUzek-3" edge="1">
          <mxGeometry width="50" height="50" relative="1" as="geometry">
            <mxPoint x="399" y="391" as="sourcePoint" />
            <mxPoint x="449" y="341" as="targetPoint" />
            <Array as="points">
              <mxPoint x="135" y="143" />
            </Array>
          </mxGeometry>
        </mxCell>
        <mxCell id="bGfBSWejrqcEYvaSUzek-7" value="" style="endArrow=none;html=1;rounded=0;exitX=0.5;exitY=0;exitDx=0;exitDy=0;entryX=1;entryY=0.5;entryDx=0;entryDy=0;" parent="1" source="bGfBSWejrqcEYvaSUzek-1" target="bGfBSWejrqcEYvaSUzek-2" edge="1">
          <mxGeometry width="50" height="50" relative="1" as="geometry">
            <mxPoint x="399" y="391" as="sourcePoint" />
            <mxPoint x="449" y="341" as="targetPoint" />
            <Array as="points">
              <mxPoint x="135" y="143" />
            </Array>
          </mxGeometry>
        </mxCell>
        <mxCell id="bGfBSWejrqcEYvaSUzek-8" value="" style="endArrow=none;html=1;rounded=0;exitX=0.5;exitY=0;exitDx=0;exitDy=0;entryX=0;entryY=0.5;entryDx=0;entryDy=0;" parent="1" source="bGfBSWejrqcEYvaSUzek-1" target="bGfBSWejrqcEYvaSUzek-5" edge="1">
          <mxGeometry width="50" height="50" relative="1" as="geometry">
            <mxPoint x="399" y="391" as="sourcePoint" />
            <mxPoint x="449" y="341" as="targetPoint" />
            <Array as="points">
              <mxPoint x="135" y="231" />
            </Array>
          </mxGeometry>
        </mxCell>
        <mxCell id="bGfBSWejrqcEYvaSUzek-9" value="" style="endArrow=none;html=1;rounded=0;exitX=0.5;exitY=0;exitDx=0;exitDy=0;entryX=1;entryY=0.5;entryDx=0;entryDy=0;" parent="1" source="bGfBSWejrqcEYvaSUzek-1" target="bGfBSWejrqcEYvaSUzek-4" edge="1">
          <mxGeometry width="50" height="50" relative="1" as="geometry">
            <mxPoint x="399" y="391" as="sourcePoint" />
            <mxPoint x="449" y="341" as="targetPoint" />
            <Array as="points">
              <mxPoint x="135" y="231" />
            </Array>
          </mxGeometry>
        </mxCell>
        <mxCell id="QLrHMtNlHkacDDfor1Ep-32" value="Имеет" style="rhombus;whiteSpace=wrap;html=1;" parent="1" vertex="1">
          <mxGeometry x="-176" y="301" width="135" height="80" as="geometry" />
        </mxCell>
        <mxCell id="QLrHMtNlHkacDDfor1Ep-33" value="" style="endArrow=ERmany;html=1;rounded=0;entryX=0;entryY=0.5;entryDx=0;entryDy=0;startArrow=none;startFill=0;endFill=0;" parent="1" target="bGfBSWejrqcEYvaSUzek-1" edge="1">
          <mxGeometry width="50" height="50" relative="1" as="geometry">
            <mxPoint x="-41" y="341" as="sourcePoint" />
            <mxPoint x="-134" y="539" as="targetPoint" />
          </mxGeometry>
        </mxCell>
        <mxCell id="9UXSLCNrsvdiqnQk7tAM-33" style="edgeStyle=orthogonalEdgeStyle;rounded=0;orthogonalLoop=1;jettySize=auto;html=1;exitX=0.5;exitY=0;exitDx=0;exitDy=0;entryX=0.5;entryY=1;entryDx=0;entryDy=0;endArrow=none;endFill=0;" parent="1" target="QLrHMtNlHkacDDfor1Ep-37" edge="1">
          <mxGeometry relative="1" as="geometry">
            <mxPoint x="-363" y="319" as="sourcePoint" />
          </mxGeometry>
        </mxCell>
        <mxCell id="QLrHMtNlHkacDDfor1Ep-34" value="Привилегии доступа" style="rounded=0;whiteSpace=wrap;html=1;" parent="1" vertex="1">
          <mxGeometry x="-429" y="308" width="132" height="66" as="geometry" />
        </mxCell>
        <mxCell id="QLrHMtNlHkacDDfor1Ep-35" value="" style="endArrow=none;html=1;rounded=0;entryX=0;entryY=0.5;entryDx=0;entryDy=0;exitX=1;exitY=0.5;exitDx=0;exitDy=0;startArrow=ERmany;startFill=0;" parent="1" source="QLrHMtNlHkacDDfor1Ep-34" target="QLrHMtNlHkacDDfor1Ep-32" edge="1">
          <mxGeometry width="50" height="50" relative="1" as="geometry">
            <mxPoint x="-99" y="589" as="sourcePoint" />
            <mxPoint x="-49" y="539" as="targetPoint" />
          </mxGeometry>
        </mxCell>
        <mxCell id="QLrHMtNlHkacDDfor1Ep-37" value="Статус доступа" style="ellipse;whiteSpace=wrap;html=1;" parent="1" vertex="1">
          <mxGeometry x="-429" y="121" width="132" height="66" as="geometry" />
        </mxCell>
        <mxCell id="QLrHMtNlHkacDDfor1Ep-38" value="Id" style="ellipse;whiteSpace=wrap;html=1;" parent="1" vertex="1">
          <mxGeometry x="-539" y="198" width="132" height="66" as="geometry" />
        </mxCell>
        <mxCell id="QLrHMtNlHkacDDfor1Ep-39" value="Уровень доступа" style="ellipse;whiteSpace=wrap;html=1;" parent="1" vertex="1">
          <mxGeometry x="-319" y="198" width="132" height="66" as="geometry" />
        </mxCell>
        <mxCell id="QLrHMtNlHkacDDfor1Ep-42" value="" style="endArrow=none;html=1;rounded=0;entryX=1;entryY=0.5;entryDx=0;entryDy=0;" parent="1" target="QLrHMtNlHkacDDfor1Ep-38" edge="1">
          <mxGeometry width="50" height="50" relative="1" as="geometry">
            <mxPoint x="-363" y="308" as="sourcePoint" />
            <mxPoint x="28" y="264" as="targetPoint" />
            <Array as="points">
              <mxPoint x="-363" y="231" />
            </Array>
          </mxGeometry>
        </mxCell>
        <mxCell id="QLrHMtNlHkacDDfor1Ep-43" value="" style="endArrow=none;html=1;rounded=0;entryX=0;entryY=0.5;entryDx=0;entryDy=0;" parent="1" target="QLrHMtNlHkacDDfor1Ep-39" edge="1">
          <mxGeometry width="50" height="50" relative="1" as="geometry">
            <mxPoint x="-363" y="297" as="sourcePoint" />
            <mxPoint x="28" y="264" as="targetPoint" />
            <Array as="points">
              <mxPoint x="-363" y="231" />
            </Array>
          </mxGeometry>
        </mxCell>
        <mxCell id="QLrHMtNlHkacDDfor1Ep-53" value="" style="endArrow=ERmany;html=1;rounded=0;entryX=0;entryY=0.5;entryDx=0;entryDy=0;endFill=0;exitX=1;exitY=0.5;exitDx=0;exitDy=0;" parent="1" source="9UXSLCNrsvdiqnQk7tAM-45" target="QLrHMtNlHkacDDfor1Ep-34" edge="1">
          <mxGeometry width="50" height="50" relative="1" as="geometry">
            <mxPoint x="-594" y="352" as="sourcePoint" />
            <mxPoint x="-720" y="253" as="targetPoint" />
          </mxGeometry>
        </mxCell>
        <mxCell id="Wevvc7DasTl3Hkkn8X4B-2" style="edgeStyle=orthogonalEdgeStyle;rounded=0;orthogonalLoop=1;jettySize=auto;html=1;exitX=0.5;exitY=1;exitDx=0;exitDy=0;entryX=0.5;entryY=0;entryDx=0;entryDy=0;endArrow=none;endFill=0;" parent="1" source="9UXSLCNrsvdiqnQk7tAM-1" target="9UXSLCNrsvdiqnQk7tAM-10" edge="1">
          <mxGeometry relative="1" as="geometry" />
        </mxCell>
        <mxCell id="Wevvc7DasTl3Hkkn8X4B-24" style="edgeStyle=orthogonalEdgeStyle;rounded=0;orthogonalLoop=1;jettySize=auto;html=1;exitX=1;exitY=0.5;exitDx=0;exitDy=0;entryX=0;entryY=0.5;entryDx=0;entryDy=0;startArrow=ERone;startFill=0;endArrow=ERmany;endFill=0;" parent="1" source="9UXSLCNrsvdiqnQk7tAM-1" target="Wevvc7DasTl3Hkkn8X4B-4" edge="1">
          <mxGeometry relative="1" as="geometry" />
        </mxCell>
        <mxCell id="9UXSLCNrsvdiqnQk7tAM-1" value="Устройство" style="rounded=0;whiteSpace=wrap;html=1;" parent="1" vertex="1">
          <mxGeometry x="-940" y="550" width="120" height="60" as="geometry" />
        </mxCell>
        <mxCell id="9UXSLCNrsvdiqnQk7tAM-2" value="Имя" style="ellipse;whiteSpace=wrap;html=1;" parent="1" vertex="1">
          <mxGeometry x="-1045" y="649" width="132" height="66" as="geometry" />
        </mxCell>
        <mxCell id="9UXSLCNrsvdiqnQk7tAM-3" value="Id" style="ellipse;whiteSpace=wrap;html=1;" parent="1" vertex="1">
          <mxGeometry x="-836" y="649" width="132" height="66" as="geometry" />
        </mxCell>
        <mxCell id="9UXSLCNrsvdiqnQk7tAM-4" value="" style="endArrow=none;html=1;rounded=0;exitX=0.5;exitY=1;exitDx=0;exitDy=0;entryX=0;entryY=0.5;entryDx=0;entryDy=0;" parent="1" source="9UXSLCNrsvdiqnQk7tAM-1" target="9UXSLCNrsvdiqnQk7tAM-3" edge="1">
          <mxGeometry width="50" height="50" relative="1" as="geometry">
            <mxPoint x="-572" y="534" as="sourcePoint" />
            <mxPoint x="-522" y="484" as="targetPoint" />
            <Array as="points">
              <mxPoint x="-880" y="682" />
            </Array>
          </mxGeometry>
        </mxCell>
        <mxCell id="9UXSLCNrsvdiqnQk7tAM-5" value="" style="endArrow=none;html=1;rounded=0;exitX=1;exitY=0.5;exitDx=0;exitDy=0;entryX=0.5;entryY=1;entryDx=0;entryDy=0;" parent="1" source="9UXSLCNrsvdiqnQk7tAM-2" target="9UXSLCNrsvdiqnQk7tAM-1" edge="1">
          <mxGeometry width="50" height="50" relative="1" as="geometry">
            <mxPoint x="-572" y="534" as="sourcePoint" />
            <mxPoint x="-522" y="484" as="targetPoint" />
            <Array as="points">
              <mxPoint x="-880" y="682" />
            </Array>
          </mxGeometry>
        </mxCell>
        <mxCell id="9UXSLCNrsvdiqnQk7tAM-6" value="" style="edgeStyle=orthogonalEdgeStyle;rounded=0;orthogonalLoop=1;jettySize=auto;html=1;endArrow=ERmany;endFill=0;startArrow=none;startFill=0;" parent="1" source="9UXSLCNrsvdiqnQk7tAM-7" target="9UXSLCNrsvdiqnQk7tAM-1" edge="1">
          <mxGeometry relative="1" as="geometry" />
        </mxCell>
        <mxCell id="9UXSLCNrsvdiqnQk7tAM-7" value="Владеет" style="rhombus;whiteSpace=wrap;html=1;" parent="1" vertex="1">
          <mxGeometry x="-947.5" y="418" width="135" height="80" as="geometry" />
        </mxCell>
        <mxCell id="9UXSLCNrsvdiqnQk7tAM-8" value="Тип устройства" style="ellipse;whiteSpace=wrap;html=1;" parent="1" vertex="1">
          <mxGeometry x="-1045" y="748" width="132" height="66" as="geometry" />
        </mxCell>
        <mxCell id="9UXSLCNrsvdiqnQk7tAM-9" value="Состояние" style="ellipse;whiteSpace=wrap;html=1;" parent="1" vertex="1">
          <mxGeometry x="-836" y="748" width="132" height="66" as="geometry" />
        </mxCell>
        <mxCell id="9UXSLCNrsvdiqnQk7tAM-10" value="Марка" style="ellipse;whiteSpace=wrap;html=1;" parent="1" vertex="1">
          <mxGeometry x="-946" y="858" width="132" height="66" as="geometry" />
        </mxCell>
        <mxCell id="9UXSLCNrsvdiqnQk7tAM-13" value="" style="endArrow=none;html=1;rounded=0;entryX=0.5;entryY=1;entryDx=0;entryDy=0;exitX=1;exitY=0.5;exitDx=0;exitDy=0;" parent="1" source="9UXSLCNrsvdiqnQk7tAM-8" target="9UXSLCNrsvdiqnQk7tAM-1" edge="1">
          <mxGeometry width="50" height="50" relative="1" as="geometry">
            <mxPoint x="-660" y="930" as="sourcePoint" />
            <mxPoint x="-610" y="880" as="targetPoint" />
            <Array as="points">
              <mxPoint x="-880" y="781" />
            </Array>
          </mxGeometry>
        </mxCell>
        <mxCell id="9UXSLCNrsvdiqnQk7tAM-14" value="" style="endArrow=none;html=1;rounded=0;entryX=0.5;entryY=1;entryDx=0;entryDy=0;exitX=0;exitY=0.5;exitDx=0;exitDy=0;" parent="1" source="9UXSLCNrsvdiqnQk7tAM-9" target="9UXSLCNrsvdiqnQk7tAM-1" edge="1">
          <mxGeometry width="50" height="50" relative="1" as="geometry">
            <mxPoint x="-660" y="930" as="sourcePoint" />
            <mxPoint x="-610" y="880" as="targetPoint" />
            <Array as="points">
              <mxPoint x="-880" y="781" />
            </Array>
          </mxGeometry>
        </mxCell>
        <mxCell id="9UXSLCNrsvdiqnQk7tAM-20" value="История работы устройства" style="rounded=0;whiteSpace=wrap;html=1;" parent="1" vertex="1">
          <mxGeometry x="-1429.5" y="550" width="120" height="60" as="geometry" />
        </mxCell>
        <mxCell id="9UXSLCNrsvdiqnQk7tAM-23" value="Время работы" style="ellipse;whiteSpace=wrap;html=1;" parent="1" vertex="1">
          <mxGeometry x="-1331" y="649" width="132" height="66" as="geometry" />
        </mxCell>
        <mxCell id="9UXSLCNrsvdiqnQk7tAM-24" value="id" style="ellipse;whiteSpace=wrap;html=1;" parent="1" vertex="1">
          <mxGeometry x="-1540" y="748" width="132" height="66" as="geometry" />
        </mxCell>
        <mxCell id="9UXSLCNrsvdiqnQk7tAM-25" value="Средний показатель" style="ellipse;whiteSpace=wrap;html=1;" parent="1" vertex="1">
          <mxGeometry x="-1331" y="748" width="132" height="66" as="geometry" />
        </mxCell>
        <mxCell id="9UXSLCNrsvdiqnQk7tAM-26" value="" style="endArrow=none;html=1;rounded=0;entryX=0.5;entryY=1;entryDx=0;entryDy=0;exitX=1;exitY=0.5;exitDx=0;exitDy=0;" parent="1" source="9UXSLCNrsvdiqnQk7tAM-24" target="9UXSLCNrsvdiqnQk7tAM-20" edge="1">
          <mxGeometry width="50" height="50" relative="1" as="geometry">
            <mxPoint x="-1363.5" y="765" as="sourcePoint" />
            <mxPoint x="-1313.5" y="715" as="targetPoint" />
            <Array as="points">
              <mxPoint x="-1369.5" y="781" />
            </Array>
          </mxGeometry>
        </mxCell>
        <mxCell id="9UXSLCNrsvdiqnQk7tAM-27" value="" style="endArrow=none;html=1;rounded=0;entryX=0.5;entryY=1;entryDx=0;entryDy=0;exitX=0;exitY=0.5;exitDx=0;exitDy=0;" parent="1" source="9UXSLCNrsvdiqnQk7tAM-25" target="9UXSLCNrsvdiqnQk7tAM-20" edge="1">
          <mxGeometry width="50" height="50" relative="1" as="geometry">
            <mxPoint x="-1363.5" y="765" as="sourcePoint" />
            <mxPoint x="-1313.5" y="715" as="targetPoint" />
            <Array as="points">
              <mxPoint x="-1369.5" y="781" />
            </Array>
          </mxGeometry>
        </mxCell>
        <mxCell id="9UXSLCNrsvdiqnQk7tAM-28" value="" style="endArrow=none;html=1;rounded=0;entryX=0.5;entryY=1;entryDx=0;entryDy=0;exitX=1;exitY=0.5;exitDx=0;exitDy=0;" parent="1" target="9UXSLCNrsvdiqnQk7tAM-20" edge="1">
          <mxGeometry width="50" height="50" relative="1" as="geometry">
            <mxPoint x="-1408.0000000000023" y="681.9999999999998" as="sourcePoint" />
            <mxPoint x="-1313.5" y="715" as="targetPoint" />
            <Array as="points">
              <mxPoint x="-1369.5" y="682" />
            </Array>
          </mxGeometry>
        </mxCell>
        <mxCell id="9UXSLCNrsvdiqnQk7tAM-29" value="" style="endArrow=none;html=1;rounded=0;exitX=0;exitY=0.5;exitDx=0;exitDy=0;entryX=0.5;entryY=1;entryDx=0;entryDy=0;" parent="1" source="9UXSLCNrsvdiqnQk7tAM-23" target="9UXSLCNrsvdiqnQk7tAM-20" edge="1">
          <mxGeometry width="50" height="50" relative="1" as="geometry">
            <mxPoint x="-1363.5" y="765" as="sourcePoint" />
            <mxPoint x="-1352.5" y="616" as="targetPoint" />
            <Array as="points">
              <mxPoint x="-1369.5" y="682" />
            </Array>
          </mxGeometry>
        </mxCell>
        <mxCell id="9UXSLCNrsvdiqnQk7tAM-46" style="edgeStyle=orthogonalEdgeStyle;rounded=0;orthogonalLoop=1;jettySize=auto;html=1;exitX=1;exitY=0.5;exitDx=0;exitDy=0;entryX=0;entryY=0.5;entryDx=0;entryDy=0;endArrow=none;endFill=0;startArrow=ERone;startFill=0;" parent="1" source="9UXSLCNrsvdiqnQk7tAM-32" target="9UXSLCNrsvdiqnQk7tAM-45" edge="1">
          <mxGeometry relative="1" as="geometry" />
        </mxCell>
        <mxCell id="9UXSLCNrsvdiqnQk7tAM-32" value="Дом" style="rounded=0;whiteSpace=wrap;html=1;" parent="1" vertex="1">
          <mxGeometry x="-946" y="308" width="132" height="66" as="geometry" />
        </mxCell>
        <mxCell id="9UXSLCNrsvdiqnQk7tAM-34" value="Географические координаты" style="ellipse;whiteSpace=wrap;html=1;" parent="1" vertex="1">
          <mxGeometry x="-946" y="121" width="132" height="66" as="geometry" />
        </mxCell>
        <mxCell id="9UXSLCNrsvdiqnQk7tAM-35" value="Id" style="ellipse;whiteSpace=wrap;html=1;" parent="1" vertex="1">
          <mxGeometry x="-1067" y="198" width="132" height="66" as="geometry" />
        </mxCell>
        <mxCell id="9UXSLCNrsvdiqnQk7tAM-36" value="Имя" style="ellipse;whiteSpace=wrap;html=1;" parent="1" vertex="1">
          <mxGeometry x="-836" y="198" width="132" height="66" as="geometry" />
        </mxCell>
        <mxCell id="9UXSLCNrsvdiqnQk7tAM-37" value="" style="endArrow=none;html=1;rounded=0;entryX=0.5;entryY=1;entryDx=0;entryDy=0;exitX=0.5;exitY=0;exitDx=0;exitDy=0;" parent="1" source="9UXSLCNrsvdiqnQk7tAM-32" target="9UXSLCNrsvdiqnQk7tAM-34" edge="1">
          <mxGeometry width="50" height="50" relative="1" as="geometry">
            <mxPoint x="-682" y="446" as="sourcePoint" />
            <mxPoint x="-632" y="396" as="targetPoint" />
          </mxGeometry>
        </mxCell>
        <mxCell id="9UXSLCNrsvdiqnQk7tAM-38" value="" style="endArrow=none;html=1;rounded=0;exitX=0.5;exitY=0;exitDx=0;exitDy=0;entryX=1;entryY=0.5;entryDx=0;entryDy=0;" parent="1" source="9UXSLCNrsvdiqnQk7tAM-32" target="9UXSLCNrsvdiqnQk7tAM-35" edge="1">
          <mxGeometry width="50" height="50" relative="1" as="geometry">
            <mxPoint x="-682" y="446" as="sourcePoint" />
            <mxPoint x="-632" y="396" as="targetPoint" />
            <Array as="points">
              <mxPoint x="-880" y="231" />
            </Array>
          </mxGeometry>
        </mxCell>
        <mxCell id="9UXSLCNrsvdiqnQk7tAM-39" value="" style="endArrow=none;html=1;rounded=0;exitX=0.5;exitY=0;exitDx=0;exitDy=0;entryX=0;entryY=0.5;entryDx=0;entryDy=0;" parent="1" source="9UXSLCNrsvdiqnQk7tAM-32" target="9UXSLCNrsvdiqnQk7tAM-36" edge="1">
          <mxGeometry width="50" height="50" relative="1" as="geometry">
            <mxPoint x="-682" y="446" as="sourcePoint" />
            <mxPoint x="-632" y="396" as="targetPoint" />
            <Array as="points">
              <mxPoint x="-880" y="231" />
            </Array>
          </mxGeometry>
        </mxCell>
        <mxCell id="9UXSLCNrsvdiqnQk7tAM-40" value="" style="endArrow=ERone;html=1;rounded=0;entryX=0.5;entryY=1;entryDx=0;entryDy=0;exitX=0.5;exitY=0;exitDx=0;exitDy=0;startArrow=none;startFill=0;endFill=0;" parent="1" source="9UXSLCNrsvdiqnQk7tAM-7" target="9UXSLCNrsvdiqnQk7tAM-32" edge="1">
          <mxGeometry width="50" height="50" relative="1" as="geometry">
            <mxPoint x="-979" y="633" as="sourcePoint" />
            <mxPoint x="-929" y="583" as="targetPoint" />
          </mxGeometry>
        </mxCell>
        <mxCell id="9UXSLCNrsvdiqnQk7tAM-41" value="Потребленная электроэнергия" style="ellipse;whiteSpace=wrap;html=1;" parent="1" vertex="1">
          <mxGeometry x="-1540" y="649" width="132" height="66" as="geometry" />
        </mxCell>
        <mxCell id="9UXSLCNrsvdiqnQk7tAM-44" style="edgeStyle=orthogonalEdgeStyle;rounded=0;orthogonalLoop=1;jettySize=auto;html=1;exitX=0;exitY=0.5;exitDx=0;exitDy=0;entryX=1;entryY=0.5;entryDx=0;entryDy=0;endArrow=ERmany;endFill=0;" parent="1" source="9UXSLCNrsvdiqnQk7tAM-42" target="9UXSLCNrsvdiqnQk7tAM-20" edge="1">
          <mxGeometry relative="1" as="geometry" />
        </mxCell>
        <mxCell id="9UXSLCNrsvdiqnQk7tAM-42" value="Имеет" style="rhombus;whiteSpace=wrap;html=1;" parent="1" vertex="1">
          <mxGeometry x="-1180" y="540" width="135" height="80" as="geometry" />
        </mxCell>
        <mxCell id="9UXSLCNrsvdiqnQk7tAM-43" value="" style="endArrow=ERone;html=1;rounded=0;entryX=0;entryY=0.5;entryDx=0;entryDy=0;exitX=1;exitY=0.5;exitDx=0;exitDy=0;endFill=0;" parent="1" source="9UXSLCNrsvdiqnQk7tAM-42" target="9UXSLCNrsvdiqnQk7tAM-1" edge="1">
          <mxGeometry width="50" height="50" relative="1" as="geometry">
            <mxPoint x="-1111" y="589" as="sourcePoint" />
            <mxPoint x="-1061" y="539" as="targetPoint" />
          </mxGeometry>
        </mxCell>
        <mxCell id="9UXSLCNrsvdiqnQk7tAM-45" value="есть" style="rhombus;whiteSpace=wrap;html=1;" parent="1" vertex="1">
          <mxGeometry x="-671" y="301" width="135" height="80" as="geometry" />
        </mxCell>
        <mxCell id="Wevvc7DasTl3Hkkn8X4B-25" style="edgeStyle=orthogonalEdgeStyle;rounded=0;orthogonalLoop=1;jettySize=auto;html=1;exitX=1;exitY=0.5;exitDx=0;exitDy=0;entryX=0;entryY=0.5;entryDx=0;entryDy=0;endArrow=ERone;endFill=0;startArrow=ERone;startFill=0;" parent="1" source="Wevvc7DasTl3Hkkn8X4B-4" target="Wevvc7DasTl3Hkkn8X4B-14" edge="1">
          <mxGeometry relative="1" as="geometry" />
        </mxCell>
        <mxCell id="Wevvc7DasTl3Hkkn8X4B-4" value="Характеристика устройства" style="rounded=0;whiteSpace=wrap;html=1;" parent="1" vertex="1">
          <mxGeometry x="-511" y="550" width="120" height="60" as="geometry" />
        </mxCell>
        <mxCell id="Wevvc7DasTl3Hkkn8X4B-5" value="Значение" style="ellipse;whiteSpace=wrap;html=1;" parent="1" vertex="1">
          <mxGeometry x="-616" y="649" width="132" height="66" as="geometry" />
        </mxCell>
        <mxCell id="Wevvc7DasTl3Hkkn8X4B-6" value="Id" style="ellipse;whiteSpace=wrap;html=1;" parent="1" vertex="1">
          <mxGeometry x="-407" y="649" width="132" height="66" as="geometry" />
        </mxCell>
        <mxCell id="Wevvc7DasTl3Hkkn8X4B-7" value="" style="endArrow=none;html=1;rounded=0;exitX=0.5;exitY=1;exitDx=0;exitDy=0;entryX=0;entryY=0.5;entryDx=0;entryDy=0;" parent="1" source="Wevvc7DasTl3Hkkn8X4B-4" target="Wevvc7DasTl3Hkkn8X4B-6" edge="1">
          <mxGeometry width="50" height="50" relative="1" as="geometry">
            <mxPoint x="-143" y="534" as="sourcePoint" />
            <mxPoint x="-93" y="484" as="targetPoint" />
            <Array as="points">
              <mxPoint x="-451" y="682" />
            </Array>
          </mxGeometry>
        </mxCell>
        <mxCell id="Wevvc7DasTl3Hkkn8X4B-8" value="" style="endArrow=none;html=1;rounded=0;exitX=1;exitY=0.5;exitDx=0;exitDy=0;entryX=0.5;entryY=1;entryDx=0;entryDy=0;" parent="1" source="Wevvc7DasTl3Hkkn8X4B-5" target="Wevvc7DasTl3Hkkn8X4B-4" edge="1">
          <mxGeometry width="50" height="50" relative="1" as="geometry">
            <mxPoint x="-143" y="534" as="sourcePoint" />
            <mxPoint x="-93" y="484" as="targetPoint" />
            <Array as="points">
              <mxPoint x="-451" y="682" />
            </Array>
          </mxGeometry>
        </mxCell>
        <mxCell id="Wevvc7DasTl3Hkkn8X4B-9" value="id устройства" style="ellipse;whiteSpace=wrap;html=1;" parent="1" vertex="1">
          <mxGeometry x="-616" y="748" width="132" height="66" as="geometry" />
        </mxCell>
        <mxCell id="Wevvc7DasTl3Hkkn8X4B-10" value="id типа характеристика" style="ellipse;whiteSpace=wrap;html=1;" parent="1" vertex="1">
          <mxGeometry x="-407" y="748" width="132" height="66" as="geometry" />
        </mxCell>
        <mxCell id="Wevvc7DasTl3Hkkn8X4B-12" value="" style="endArrow=none;html=1;rounded=0;entryX=0.5;entryY=1;entryDx=0;entryDy=0;exitX=1;exitY=0.5;exitDx=0;exitDy=0;" parent="1" source="Wevvc7DasTl3Hkkn8X4B-9" target="Wevvc7DasTl3Hkkn8X4B-4" edge="1">
          <mxGeometry width="50" height="50" relative="1" as="geometry">
            <mxPoint x="-231" y="930" as="sourcePoint" />
            <mxPoint x="-181" y="880" as="targetPoint" />
            <Array as="points">
              <mxPoint x="-451" y="781" />
            </Array>
          </mxGeometry>
        </mxCell>
        <mxCell id="Wevvc7DasTl3Hkkn8X4B-13" value="" style="endArrow=none;html=1;rounded=0;entryX=0.5;entryY=1;entryDx=0;entryDy=0;exitX=0;exitY=0.5;exitDx=0;exitDy=0;" parent="1" source="Wevvc7DasTl3Hkkn8X4B-10" target="Wevvc7DasTl3Hkkn8X4B-4" edge="1">
          <mxGeometry width="50" height="50" relative="1" as="geometry">
            <mxPoint x="-231" y="930" as="sourcePoint" />
            <mxPoint x="-181" y="880" as="targetPoint" />
            <Array as="points">
              <mxPoint x="-451" y="781" />
            </Array>
          </mxGeometry>
        </mxCell>
        <mxCell id="Wevvc7DasTl3Hkkn8X4B-23" style="edgeStyle=orthogonalEdgeStyle;rounded=0;orthogonalLoop=1;jettySize=auto;html=1;exitX=0.5;exitY=1;exitDx=0;exitDy=0;endArrow=none;endFill=0;" parent="1" source="Wevvc7DasTl3Hkkn8X4B-14" target="Wevvc7DasTl3Hkkn8X4B-19" edge="1">
          <mxGeometry relative="1" as="geometry" />
        </mxCell>
        <mxCell id="Wevvc7DasTl3Hkkn8X4B-14" value="Характеристика устройства" style="rounded=0;whiteSpace=wrap;html=1;" parent="1" vertex="1">
          <mxGeometry x="-104" y="550" width="120" height="60" as="geometry" />
        </mxCell>
        <mxCell id="Wevvc7DasTl3Hkkn8X4B-15" value="вид" style="ellipse;whiteSpace=wrap;html=1;" parent="1" vertex="1">
          <mxGeometry x="-209" y="649" width="132" height="66" as="geometry" />
        </mxCell>
        <mxCell id="Wevvc7DasTl3Hkkn8X4B-16" value="единица измерения" style="ellipse;whiteSpace=wrap;html=1;" parent="1" vertex="1">
          <mxGeometry y="649" width="132" height="66" as="geometry" />
        </mxCell>
        <mxCell id="Wevvc7DasTl3Hkkn8X4B-17" value="" style="endArrow=none;html=1;rounded=0;exitX=0.5;exitY=1;exitDx=0;exitDy=0;entryX=0;entryY=0.5;entryDx=0;entryDy=0;" parent="1" source="Wevvc7DasTl3Hkkn8X4B-14" target="Wevvc7DasTl3Hkkn8X4B-16" edge="1">
          <mxGeometry width="50" height="50" relative="1" as="geometry">
            <mxPoint x="264" y="534" as="sourcePoint" />
            <mxPoint x="314" y="484" as="targetPoint" />
            <Array as="points">
              <mxPoint x="-44" y="682" />
            </Array>
          </mxGeometry>
        </mxCell>
        <mxCell id="Wevvc7DasTl3Hkkn8X4B-18" value="" style="endArrow=none;html=1;rounded=0;exitX=1;exitY=0.5;exitDx=0;exitDy=0;entryX=0.5;entryY=1;entryDx=0;entryDy=0;" parent="1" source="Wevvc7DasTl3Hkkn8X4B-15" target="Wevvc7DasTl3Hkkn8X4B-14" edge="1">
          <mxGeometry width="50" height="50" relative="1" as="geometry">
            <mxPoint x="264" y="534" as="sourcePoint" />
            <mxPoint x="314" y="484" as="targetPoint" />
            <Array as="points">
              <mxPoint x="-44" y="682" />
            </Array>
          </mxGeometry>
        </mxCell>
        <mxCell id="Wevvc7DasTl3Hkkn8X4B-19" value="id" style="ellipse;whiteSpace=wrap;html=1;" parent="1" vertex="1">
          <mxGeometry x="-110" y="748" width="132" height="66" as="geometry" />
        </mxCell>
        <mxCell id="Fnbm2KCg1YZODt6To6XT-3" value="Восстановление&amp;nbsp;&lt;div&gt;пароля&lt;/div&gt;" style="rounded=0;whiteSpace=wrap;html=1;" vertex="1" parent="1">
          <mxGeometry x="473" y="308" width="132" height="66" as="geometry" />
        </mxCell>
        <mxCell id="Fnbm2KCg1YZODt6To6XT-4" value="Id" style="ellipse;whiteSpace=wrap;html=1;" vertex="1" parent="1">
          <mxGeometry x="363" y="110" width="132" height="66" as="geometry" />
        </mxCell>
        <mxCell id="Fnbm2KCg1YZODt6To6XT-5" value="Id клиента" style="ellipse;whiteSpace=wrap;html=1;" vertex="1" parent="1">
          <mxGeometry x="583" y="110" width="132" height="66" as="geometry" />
        </mxCell>
        <mxCell id="Fnbm2KCg1YZODt6To6XT-6" value="Токен" style="ellipse;whiteSpace=wrap;html=1;" vertex="1" parent="1">
          <mxGeometry x="363" y="198" width="132" height="66" as="geometry" />
        </mxCell>
        <mxCell id="Fnbm2KCg1YZODt6To6XT-7" value="Код восстановаления" style="ellipse;whiteSpace=wrap;html=1;" vertex="1" parent="1">
          <mxGeometry x="583" y="198" width="132" height="66" as="geometry" />
        </mxCell>
        <mxCell id="Fnbm2KCg1YZODt6To6XT-8" value="" style="endArrow=none;html=1;rounded=0;exitX=0.5;exitY=0;exitDx=0;exitDy=0;entryX=0;entryY=0.5;entryDx=0;entryDy=0;" edge="1" parent="1" source="Fnbm2KCg1YZODt6To6XT-3" target="Fnbm2KCg1YZODt6To6XT-5">
          <mxGeometry width="50" height="50" relative="1" as="geometry">
            <mxPoint x="803" y="391" as="sourcePoint" />
            <mxPoint x="853" y="341" as="targetPoint" />
            <Array as="points">
              <mxPoint x="539" y="143" />
            </Array>
          </mxGeometry>
        </mxCell>
        <mxCell id="Fnbm2KCg1YZODt6To6XT-9" value="" style="endArrow=none;html=1;rounded=0;exitX=0.5;exitY=0;exitDx=0;exitDy=0;entryX=1;entryY=0.5;entryDx=0;entryDy=0;" edge="1" parent="1" source="Fnbm2KCg1YZODt6To6XT-3" target="Fnbm2KCg1YZODt6To6XT-4">
          <mxGeometry width="50" height="50" relative="1" as="geometry">
            <mxPoint x="803" y="391" as="sourcePoint" />
            <mxPoint x="853" y="341" as="targetPoint" />
            <Array as="points">
              <mxPoint x="539" y="143" />
            </Array>
          </mxGeometry>
        </mxCell>
        <mxCell id="Fnbm2KCg1YZODt6To6XT-10" value="" style="endArrow=none;html=1;rounded=0;exitX=0.5;exitY=0;exitDx=0;exitDy=0;entryX=0;entryY=0.5;entryDx=0;entryDy=0;" edge="1" parent="1" source="Fnbm2KCg1YZODt6To6XT-3" target="Fnbm2KCg1YZODt6To6XT-7">
          <mxGeometry width="50" height="50" relative="1" as="geometry">
            <mxPoint x="803" y="391" as="sourcePoint" />
            <mxPoint x="853" y="341" as="targetPoint" />
            <Array as="points">
              <mxPoint x="539" y="231" />
            </Array>
          </mxGeometry>
        </mxCell>
        <mxCell id="Fnbm2KCg1YZODt6To6XT-11" value="" style="endArrow=none;html=1;rounded=0;exitX=0.5;exitY=0;exitDx=0;exitDy=0;entryX=1;entryY=0.5;entryDx=0;entryDy=0;" edge="1" parent="1" source="Fnbm2KCg1YZODt6To6XT-3" target="Fnbm2KCg1YZODt6To6XT-6">
          <mxGeometry width="50" height="50" relative="1" as="geometry">
            <mxPoint x="803" y="391" as="sourcePoint" />
            <mxPoint x="853" y="341" as="targetPoint" />
            <Array as="points">
              <mxPoint x="539" y="231" />
            </Array>
          </mxGeometry>
        </mxCell>
        <mxCell id="Fnbm2KCg1YZODt6To6XT-12" value="" style="endArrow=ERmany;html=1;rounded=0;entryX=0;entryY=0.5;entryDx=0;entryDy=0;startArrow=ERone;startFill=0;endFill=0;exitX=1;exitY=0.5;exitDx=0;exitDy=0;" edge="1" parent="1" target="Fnbm2KCg1YZODt6To6XT-3" source="bGfBSWejrqcEYvaSUzek-1">
          <mxGeometry width="50" height="50" relative="1" as="geometry">
            <mxPoint x="201" y="352" as="sourcePoint" />
            <mxPoint x="270" y="539" as="targetPoint" />
          </mxGeometry>
        </mxCell>
      </root>
    </mxGraphModel>
  </diagram>
</mxfile>
